<svg width="125" height="37" viewBox="0 0 125 37" fill="none" xmlns="http://www.w3.org/2000/svg">
<g filter="url(#filter0_d_3_48)">
<path fill-rule="evenodd" clip-rule="evenodd" d="M109.843 17.6368C109.843 15.3331 108.873 12.6667 105.856 8.94974L98.5785 0H88.4471L94.215 6.27897C95.1868 7.32605 96.4245 8.26702 96.4245 8.26702C95.0219 7.48259 93.246 7.16864 91.8434 7.16864C88.5027 7.16864 85.1073 7.8496 82.089 9.47152C78.8558 11.1978 76.6973 14.0764 76.6973 17.8977C76.6973 20.8276 78.047 23.0783 79.7711 24.8046C83.651 28.5746 90.7122 28.9399 93.2997 28.9399C97.1267 28.9399 103.11 28.1015 106.504 25.1194C108.5 23.3401 109.847 20.8807 109.847 17.6377L109.843 17.6368ZM121 7.74524H112.215V28.2598H121V7.74524ZM48.7786 28.2598L29.3746 0H18.4882L21.4965 3.45343L4.42139 28.2598H14.2304L17.1567 23.6027H35.658L38.6454 28.258H48.7786V28.2598ZM74.4868 19.6771V7.74524H65.973V16.9037C65.973 19.5214 65.8637 20.2519 65.7025 20.932C65.1105 22.8157 63.0612 23.6523 60.9574 23.6523C58.0475 23.6523 56.6995 22.553 56.1622 20.8258C55.9982 20.251 55.9463 19.6249 55.8926 18.9952C55.8379 18.316 55.8926 17.5829 55.8926 16.7976V7.74524H47.2694V19.7283C47.2694 22.3991 48.1847 24.3863 49.6939 25.7482C52.2805 28.2067 56.6467 28.9407 60.6896 28.9407C65.595 28.9407 69.3692 28.2598 72.0633 25.6951C73.4659 24.3863 74.4896 22.66 74.4896 19.6771H74.4868ZM101.436 17.8977C101.436 20.0423 99.9811 21.6651 98.1486 22.5548C96.6404 23.3401 94.8607 23.5488 93.297 23.5488C91.7341 23.5488 89.9016 23.2366 88.3925 22.5026C86.56 21.6138 85.1592 19.8866 85.1592 18.0012C85.1592 15.7523 86.9371 13.9729 89.0391 13.0824C90.3324 12.5058 91.8962 12.2971 93.1348 12.2971C94.3207 12.2971 96.0466 12.4536 97.3927 12.978C99.819 13.9729 101.436 15.8557 101.436 17.8977ZM32.2381 18.0879H20.5119L26.3554 8.726L32.239 18.0879H32.2381Z" fill="#5982E7"/>
</g>
<defs>
<filter id="filter0_d_3_48" x="0.421387" y="0" width="124.578" height="36.9408" filterUnits="userSpaceOnUse" color-interpolation-filters="sRGB">
<feFlood flood-opacity="0" result="BackgroundImageFix"/>
<feColorMatrix in="SourceAlpha" type="matrix" values="0 0 0 0 0 0 0 0 0 0 0 0 0 0 0 0 0 0 127 0" result="hardAlpha"/>
<feOffset dy="4"/>
<feGaussianBlur stdDeviation="2"/>
<feComposite in2="hardAlpha" operator="out"/>
<feColorMatrix type="matrix" values="0 0 0 0 0 0 0 0 0 0 0 0 0 0 0 0 0 0 0.25 0"/>
<feBlend mode="normal" in2="BackgroundImageFix" result="effect1_dropShadow_3_48"/>
<feBlend mode="normal" in="SourceGraphic" in2="effect1_dropShadow_3_48" result="shape"/>
</filter>
</defs>
</svg>
